<svg width="80" height="80" viewBox="0 0 80 80" fill="none" xmlns="http://www.w3.org/2000/svg">
<path fill-rule="evenodd" clip-rule="evenodd" d="M40 0.799988C37.2938 0.799988 35.1 2.99372 35.1 5.69999V15.5C35.1 18.2063 37.2938 20.4 40 20.4C42.7073 20.4 44.9001 18.2063 44.9001 15.5V5.69999C44.9001 2.99372 42.7073 0.799988 40 0.799988ZM67.7194 12.2814C65.8059 10.3677 62.7018 10.3677 60.7883 12.2814L53.8597 19.211C51.9462 21.1247 51.9462 24.2271 53.8597 26.1406C55.7731 28.0543 58.8749 28.0543 60.7883 26.1406L67.7194 19.211C69.6328 17.2976 69.6328 14.1949 67.7194 12.2814ZM74.3 35.1C77.0073 35.1 79.2001 37.2927 79.2001 40C79.2001 42.7072 77.0073 44.9 74.3 44.9H64.5C61.7928 44.9 59.6001 42.7072 59.6001 40C59.6001 37.2927 61.7928 35.1 64.5 35.1H74.3ZM67.7194 67.7193C69.6328 65.8058 69.6328 62.7017 67.7194 60.7882L60.7883 53.8596C58.8749 51.9462 55.7731 51.9462 53.8597 53.8596C51.9462 55.7731 51.9462 58.8748 53.8597 60.7882L60.7883 67.7193C62.7018 69.6327 65.8059 69.6327 67.7194 67.7193ZM44.9001 74.3C44.9001 77.0072 42.7073 79.2 40 79.2C37.2938 79.2 35.1 77.0072 35.1 74.3V64.5C35.1 61.7927 37.2938 59.6 40 59.6C42.7073 59.6 44.9001 61.7927 44.9001 64.5V74.3ZM12.2815 67.7193C14.1949 69.6327 17.2976 69.6327 19.2111 67.7193L26.1406 60.7882C28.0543 58.8748 28.0543 55.7731 26.1406 53.8596C24.2272 51.9462 21.1248 51.9462 19.2111 53.8596L12.2815 60.7882C10.3678 62.7017 10.3678 65.8058 12.2815 67.7193ZM5.70005 44.9C2.99378 44.9 0.800049 42.7072 0.800049 40C0.800049 37.2927 2.99378 35.1 5.70005 35.1H15.5C18.2063 35.1 20.4 37.2927 20.4 40C20.4 42.7072 18.2063 44.9 15.5 44.9H5.70005ZM12.2815 12.2814C10.3678 14.1949 10.3678 17.2976 12.2815 19.211L19.2111 26.1406C21.1248 28.0543 24.2272 28.0543 26.1406 26.1406C28.0543 24.2271 28.0543 21.1247 26.1406 19.211L19.2111 12.2814C17.2976 10.3677 14.1949 10.3677 12.2815 12.2814Z" fill="black"/>
</svg>
